<svg xmlns="http://www.w3.org/2000/svg" viewBox="0 0 750 500"><g id="freepik--background-complete--inject-99"><path d="M131,67.76c.59-4.28-5.44-7.8-10-8.16-2.16-.18-4.41.15-6.46-.56-4.44-1.55-6.21-7.29-10.55-9.11-3.23-1.37-7-.15-10.1,1.43s-6.25,3.57-9.75,3.79c-3.06.2-6.37-.94-9,.55-2,1.12-3,3.41-4.86,4.76s-4.14,1.6-6.36,1.72-4.54.15-6.56,1.08-3.71,3.07-3.28,5.26Z" style="fill:#ebebeb"></path><path d="M604.61,58.17c.59-4.28-5.45-7.8-10-8.17-2.16-.17-4.41.16-6.45-.55-4.44-1.55-6.22-7.29-10.55-9.12-3.24-1.36-7-.15-10.11,1.43s-6.24,3.57-9.75,3.8c-3,.19-6.37-.94-9,.55-2,1.11-3,3.41-4.86,4.76s-4.13,1.6-6.36,1.72-4.53.15-6.56,1.07-3.7,3.08-3.28,5.26Z" style="fill:#ebebeb"></path><path d="M298.2,171.71c.4-2.89-3.68-5.28-6.75-5.52-1.47-.12-3,.1-4.38-.38-3-1.05-4.2-4.93-7.13-6.17-2.2-.92-4.72-.1-6.85,1s-4.22,2.42-6.6,2.57c-2.06.13-4.3-.64-6.11.37-1.35.76-2.05,2.31-3.29,3.22a7.83,7.83,0,0,1-4.31,1.17,12.24,12.24,0,0,0-4.44.72,3.52,3.52,0,0,0-2.22,3.57Z" style="fill:#f5f5f5"></path><path d="M710.5,114.07c.39-2.89-3.69-5.27-6.76-5.52-1.47-.12-3,.11-4.37-.38-3-1-4.21-4.93-7.14-6.17-2.19-.92-4.72-.1-6.84,1s-4.23,2.42-6.6,2.57c-2.07.13-4.31-.63-6.12.38-1.35.75-2,2.3-3.29,3.22a7.9,7.9,0,0,1-4.31,1.16,12.11,12.11,0,0,0-4.44.73,3.52,3.52,0,0,0-2.22,3.56Z" style="fill:#f5f5f5"></path><path d="M730.16,332.85H406.72a64,64,0,0,1-64-64V138.8a14.27,14.27,0,0,0-14.25-14.26H213.84a9.3,9.3,0,0,0-9.29,9.29v48.11A57.58,57.58,0,0,1,147,239.45H37.39V191.23H147a9.3,9.3,0,0,0,9.29-9.29V133.83a57.58,57.58,0,0,1,57.51-57.51H328.5A62.54,62.54,0,0,1,391,138.8V268.89a15.77,15.77,0,0,0,15.75,15.74H730.16Z" style="fill:#ebebeb"></path><path d="M231,133.78h0a5.81,5.81,0,0,1-5.8-5.81V68.39a5.8,5.8,0,0,1,5.8-5.8h0a5.81,5.81,0,0,1,5.81,5.8V128A5.81,5.81,0,0,1,231,133.78Z" style="fill:#e0e0e0"></path><path d="M215.32,159h0a5.8,5.8,0,0,1-5.8,5.8H149.94a5.81,5.81,0,0,1-5.81-5.8h0a5.8,5.8,0,0,1,5.81-5.8h59.58A5.8,5.8,0,0,1,215.32,159Z" style="fill:#e0e0e0"></path><path d="M110.4,253.63h0a5.8,5.8,0,0,1-5.8-5.8V188.25a5.81,5.81,0,0,1,5.8-5.81h0a5.8,5.8,0,0,1,5.8,5.81v59.58A5.8,5.8,0,0,1,110.4,253.63Z" style="fill:#e0e0e0"></path><path d="M399.1,163.39h0a5.81,5.81,0,0,1-5.8,5.81H333.72a5.81,5.81,0,0,1-5.81-5.81h0a5.81,5.81,0,0,1,5.81-5.8H393.3A5.8,5.8,0,0,1,399.1,163.39Z" style="fill:#e0e0e0"></path><path d="M399.1,261.26h0a5.81,5.81,0,0,1-5.8,5.81H333.72a5.81,5.81,0,0,1-5.81-5.81h0a5.81,5.81,0,0,1,5.81-5.8H393.3A5.8,5.8,0,0,1,399.1,261.26Z" style="fill:#e0e0e0"></path><path d="M561.61,271.59h0a5.79,5.79,0,0,1,5.8,5.8V337a5.79,5.79,0,0,1-5.8,5.8h0a5.8,5.8,0,0,1-5.8-5.8V277.39A5.8,5.8,0,0,1,561.61,271.59Z" style="fill:#e0e0e0"></path><path d="M678.41,271.59h0a5.8,5.8,0,0,1,5.8,5.8V337a5.8,5.8,0,0,1-5.8,5.8h0a5.79,5.79,0,0,1-5.8-5.8V277.39A5.79,5.79,0,0,1,678.41,271.59Z" style="fill:#e0e0e0"></path><path d="M322.11,136h0a5.8,5.8,0,0,1-5.8-5.8V70.62a5.79,5.79,0,0,1,5.8-5.8h0a5.8,5.8,0,0,1,5.8,5.8V130.2A5.8,5.8,0,0,1,322.11,136Z" style="fill:#e0e0e0"></path></g><g id="freepik--Floor--inject-99"><path d="M727.81,472c0,.15-158,.26-352.79.26S22.19,472.11,22.19,472s157.94-.26,352.83-.26S727.81,471.82,727.81,472Z" style="fill:#263238"></path></g><g id="freepik--Plant--inject-99"><path d="M667.27,408.29a11.87,11.87,0,0,1,6.18,7,21.06,21.06,0,0,1,.82,9.47c-.7,6.15-4.19,12.36-7.95,17.27-5.18-4.52-6.37-12.4-6.72-16.44-.56-6.37,2.3-18.24,7.67-17.29" style="fill:#37474F"></path><path d="M672.34,452.17a10.14,10.14,0,0,1,3.28-9.66,13.44,13.44,0,0,1,10-3.11c1.65.12,3.43.6,4.37,2a4.31,4.31,0,0,1,.07,4.4,8.84,8.84,0,0,1-3.26,3.22c-4.49,2.81-9.34,4.71-14.41,3.19" style="fill:#37474F"></path><path d="M665.7,471a6.3,6.3,0,0,1,.18-1.26c.16-.89.37-2,.63-3.42a35.45,35.45,0,0,1,3.52-10.9,21.79,21.79,0,0,1,7.83-8.32,14.86,14.86,0,0,1,3.19-1.41,7.07,7.07,0,0,1,.92-.24c.21,0,.32-.06.33,0a22.94,22.94,0,0,0-4.28,2,22.52,22.52,0,0,0-7.6,8.26,38.56,38.56,0,0,0-3.6,10.76c-.32,1.43-.57,2.59-.77,3.38A9.17,9.17,0,0,1,665.7,471Z" style="fill:#263238"></path><path d="M665.89,417.52a2,2,0,0,1,.06.55c0,.41.06.93.1,1.58.07,1.38.15,3.37.23,5.84.16,4.92.29,11.73.25,19.25s-.21,14.33-.42,19.26c-.1,2.46-.19,4.45-.28,5.83,0,.65-.08,1.17-.11,1.58a2.22,2.22,0,0,1-.07.55,3.33,3.33,0,0,1,0-.55q0-.62,0-1.59c0-1.43.08-3.41.14-5.83.12-4.93.25-11.73.29-19.25s-.05-14.32-.13-19.25c0-2.42-.06-4.4-.09-5.83,0-.65,0-1.18,0-1.59A3.93,3.93,0,0,1,665.89,417.52Z" style="fill:#263238"></path><path d="M663.38,455.91a23.79,23.79,0,0,0-13-17.42c-1.73-.83-4-1.37-5.41-.08s-1.1,3.6-.4,5.39a20.31,20.31,0,0,0,18.68,12.62" style="fill:#37474F"></path><path d="M651.23,444.32a7.09,7.09,0,0,1,1.1.48,10.6,10.6,0,0,1,1.24.67,17.08,17.08,0,0,1,1.58,1,19.43,19.43,0,0,1,1.81,1.36,21.67,21.67,0,0,1,1.93,1.75A24.35,24.35,0,0,1,665,459.71a22.52,22.52,0,0,1,.61,2.53,20,20,0,0,1,.31,2.24c.09.69.06,1.32.09,1.86a10,10,0,0,1-.05,1.41,5.78,5.78,0,0,1-.13,1.19c-.1,0,.08-1.71-.23-4.43a20.45,20.45,0,0,0-.36-2.2,22.59,22.59,0,0,0-.63-2.48,27.3,27.3,0,0,0-2.4-5.34,27.68,27.68,0,0,0-3.57-4.64,24.82,24.82,0,0,0-1.87-1.75,21.4,21.4,0,0,0-1.75-1.38C652.75,445.12,651.19,444.41,651.23,444.32Z" style="fill:#263238"></path></g><g id="freepik--Pipeline--inject-99"><polygon points="324.79 391.6 339.55 407.25 339.55 471.96 355.37 471.96 355.37 407.25 370.76 392.28 324.79 391.6" style="fill:#e0e0e0"></polygon><path d="M324.79,391.6l46,.48h.5l-.36.35-15.38,15,.07-.17c0,14.94,0,31.83,0,49.65,0,5.1,0,10.14,0,15.06v.26H339.3V472c0-26.58.08-49.34.1-64.71l0,.1L324.79,391.6l14.87,15.55,0,0v.06c0,15.37.06,38.13.1,64.71l-.25-.25h15.82l-.26.26V456.9c0-17.82,0-34.71,0-49.65v-.1l.07-.07,15.42-14.95.14.36Z" style="fill:#263238"></path><path d="M355.37,407.46a59.68,59.68,0,0,1-7.95.26,59.68,59.68,0,0,1-7.95-.26,61.78,61.78,0,0,1,7.95-.26A61.78,61.78,0,0,1,355.37,407.46Z" style="fill:#263238"></path><path d="M472.53,395.32h-.63L16.11,390.86l.71-80.36L447,314.72a13.6,13.6,0,0,0,13.72-13.6V239.8a68.61,68.61,0,0,1,68.61-68.61H733.89v80.37H554.71a13.59,13.59,0,0,0-13.59,13.6v61.55a68.61,68.61,0,0,1-68.59,68.61Z" style="fill:#455a64"></path><path d="M124.76,400.54h0a5.4,5.4,0,0,1-5.4-5.4V312.59a5.41,5.41,0,0,1,5.4-5.41h0a5.41,5.41,0,0,1,5.41,5.41v82.55A5.41,5.41,0,0,1,124.76,400.54Z" style="fill:#455a64"></path><path d="M124.76,400.54a6.41,6.41,0,0,0,2-.42,5.38,5.38,0,0,0,3.3-4.33c.06-5,0-12.32,0-21.32s0-19.73,0-31.63c0-5.95,0-12.2,0-18.68v-9.88a22.47,22.47,0,0,0-.07-2.48,5,5,0,0,0-.9-2.21,5.14,5.14,0,0,0-9.26,2.21,20.07,20.07,0,0,0-.06,2.47q0,5,0,9.88c0,6.48,0,12.73,0,18.69,0,11.9,0,22.62-.06,31.64s-.1,16.3,0,21.31a5.36,5.36,0,0,0,3.31,4.33,6.38,6.38,0,0,0,2,.42h-.51a4.89,4.89,0,0,1-1.48-.33,5.22,5.22,0,0,1-2-1.37,5.42,5.42,0,0,1-1.43-3c-.12-5.06-.08-12.33-.13-21.34s0-19.74,0-31.64c0-6,0-12.21,0-18.69v-9.88a22,22,0,0,1,.07-2.55,5.46,5.46,0,0,1,1-2.44,5.65,5.65,0,0,1,9.19,0,5.54,5.54,0,0,1,1,2.43,22.25,22.25,0,0,1,.07,2.56c0,3.34,0,6.64,0,9.88,0,6.48,0,12.73,0,18.68,0,11.9,0,22.62-.06,31.63s0,16.29-.13,21.35a5.41,5.41,0,0,1-1.42,3,5.22,5.22,0,0,1-2,1.37,5,5,0,0,1-1.48.33Z" style="fill:#263238"></path><path d="M552.3,275h0a5.39,5.39,0,0,1-7.38,2L457,226.22a5.4,5.4,0,0,1-2-7.38h0a5.4,5.4,0,0,1,7.38-2l87.9,50.75A5.4,5.4,0,0,1,552.3,275Z" style="fill:#455a64"></path><path d="M552.3,275a6.11,6.11,0,0,0,.65-2.28,5.27,5.27,0,0,0-1.66-4.25,8.06,8.06,0,0,0-1.73-1.17l-22-12.63-32.64-18.78-19.27-11.1-10.19-5.88-2.59-1.5a5.68,5.68,0,0,0-2.7-1,5.13,5.13,0,0,0-4.65,8,5.73,5.73,0,0,0,2.19,1.85l2.6,1.5,10.19,5.89,19.25,11.13,32.59,18.88,22,12.77a8.3,8.3,0,0,0,1.88.91,5.25,5.25,0,0,0,1.81.22,5.35,5.35,0,0,0,2.7-.91A6,6,0,0,0,552.3,275a5.21,5.21,0,0,1-.31.53,5.41,5.41,0,0,1-1.28,1.27,5.48,5.48,0,0,1-2.75,1,5.11,5.11,0,0,1-1.87-.2,8,8,0,0,1-1.93-.91l-22-12.62-32.65-18.79-19.27-11.1L460,228.26l-2.6-1.5a6.31,6.31,0,0,1-2.36-2,5.65,5.65,0,0,1,5.12-8.85,6.31,6.31,0,0,1,2.92,1l2.59,1.5,10.19,5.88,19.25,11.14,32.58,18.87,21.95,12.77a8.19,8.19,0,0,1,1.76,1.22,5.58,5.58,0,0,1,1.11,1.52,5.5,5.5,0,0,1,.53,2.87,5.73,5.73,0,0,1-.46,1.74A4.52,4.52,0,0,1,552.3,275Z" style="fill:#263238"></path><path d="M660.68,257.93h0a5.41,5.41,0,0,1-5.41-5.4V170a5.41,5.41,0,0,1,5.41-5.41h0a5.41,5.41,0,0,1,5.4,5.41v82.55A5.4,5.4,0,0,1,660.68,257.93Z" style="fill:#455a64"></path><path d="M660.68,257.93a6.43,6.43,0,0,0,2-.42,5.36,5.36,0,0,0,3.31-4.33c0-5,0-12.32,0-21.31s0-19.74-.06-31.64c0-5.95,0-12.2,0-18.68,0-3.24,0-6.54,0-9.88a20.29,20.29,0,0,0-.06-2.48,5.12,5.12,0,0,0-.91-2.21,5.14,5.14,0,0,0-8.35,0,5,5,0,0,0-.9,2.22,20,20,0,0,0-.07,2.47q0,5,0,9.89c0,6.47,0,12.73,0,18.68,0,11.9,0,22.63-.06,31.64s-.09,16.31,0,21.31a5.38,5.38,0,0,0,3.3,4.33,6.41,6.41,0,0,0,2,.42h-.52a5.68,5.68,0,0,1-1.48-.33,5.37,5.37,0,0,1-2-1.38,5.46,5.46,0,0,1-1.43-3c-.12-5.06-.08-12.33-.12-21.34s0-19.74-.06-31.64c0-5.95,0-12.21,0-18.68v-9.89a22,22,0,0,1,.07-2.55,5.63,5.63,0,0,1,1-2.44,5.65,5.65,0,0,1,9.19,0,5.42,5.42,0,0,1,1,2.43,22.25,22.25,0,0,1,.07,2.56v9.88c0,6.48,0,12.73,0,18.68,0,11.9,0,22.62-.05,31.64s0,16.28-.13,21.34a5.49,5.49,0,0,1-1.43,3,5.37,5.37,0,0,1-2,1.38,5.68,5.68,0,0,1-1.48.33Z" style="fill:#263238"></path><path d="M408.39,400.54h0a5.41,5.41,0,0,1-5.41-5.4V312.59a5.41,5.41,0,0,1,5.41-5.41h0a5.41,5.41,0,0,1,5.4,5.41v82.55A5.4,5.4,0,0,1,408.39,400.54Z" style="fill:#455a64"></path><path d="M408.39,400.54a6.38,6.38,0,0,0,1.95-.42,5.36,5.36,0,0,0,3.31-4.33c.06-5,0-12.32,0-21.32s0-19.73-.06-31.63c0-5.95,0-12.2,0-18.68v-9.88a22.47,22.47,0,0,0-.07-2.48,5,5,0,0,0-.9-2.21,5.14,5.14,0,0,0-8.35,0,5,5,0,0,0-.91,2.22,22.21,22.21,0,0,0-.07,2.47v9.88c0,6.48,0,12.73,0,18.69,0,11.9,0,22.62-.05,31.64s-.1,16.3,0,21.31a5.38,5.38,0,0,0,3.3,4.33,6.41,6.41,0,0,0,2,.42h-.52a4.9,4.9,0,0,1-1.47-.33,5.18,5.18,0,0,1-2-1.37,5.41,5.41,0,0,1-1.42-3c-.13-5.06-.09-12.33-.13-21.34s0-19.74-.06-31.64c0-6,0-12.21,0-18.69q0-4.86,0-9.88a20,20,0,0,1,.08-2.55,5.56,5.56,0,0,1,1-2.44,5.66,5.66,0,0,1,9.2,0,5.41,5.41,0,0,1,1,2.43,22.25,22.25,0,0,1,.07,2.56v9.88c0,6.48,0,12.73,0,18.68,0,11.9,0,22.62,0,31.63s0,16.29-.13,21.35a5.42,5.42,0,0,1-1.43,3,5.15,5.15,0,0,1-2,1.37,4.89,4.89,0,0,1-1.48.33Z" style="fill:#263238"></path><path d="M292.83,400.54h0a5.41,5.41,0,0,1-5.41-5.4V312.59a5.41,5.41,0,0,1,5.41-5.41h0a5.41,5.41,0,0,1,5.4,5.41v82.55A5.4,5.4,0,0,1,292.83,400.54Z" style="fill:#455a64"></path><path d="M292.83,400.54a6.43,6.43,0,0,0,1.95-.42,5.36,5.36,0,0,0,3.31-4.33c.05-5,0-12.32,0-21.32s0-19.73-.06-31.63c0-5.95,0-12.2,0-18.68,0-3.24,0-6.54,0-9.88a20.29,20.29,0,0,0-.06-2.48,5.17,5.17,0,0,0-5.08-4.36,5.2,5.2,0,0,0-4.18,2.14,5,5,0,0,0-.9,2.22,20,20,0,0,0-.07,2.47q0,5,0,9.88c0,6.48,0,12.73,0,18.69,0,11.9,0,22.62-.06,31.64s-.09,16.3,0,21.31a5.38,5.38,0,0,0,3.3,4.33,6.41,6.41,0,0,0,2,.42h-.52a5,5,0,0,1-1.48-.33,5.22,5.22,0,0,1-2-1.37,5.49,5.49,0,0,1-1.43-3c-.12-5.06-.08-12.33-.12-21.34s0-19.74-.06-31.64c0-6,0-12.21,0-18.69v-9.88a22,22,0,0,1,.07-2.55,5.58,5.58,0,0,1,1-2.44,5.65,5.65,0,0,1,9.19,0,5.42,5.42,0,0,1,1,2.43,22.25,22.25,0,0,1,.07,2.56v9.88c0,6.48,0,12.73,0,18.68,0,11.9,0,22.62-.05,31.63s0,16.29-.13,21.35a5.49,5.49,0,0,1-1.43,3,5.22,5.22,0,0,1-2,1.37,5,5,0,0,1-1.48.33Z" style="fill:#263238"></path><g style="opacity:0.30000000000000004"><path d="M477,226.2s37.77,6.13,70.57,39.71Z"></path></g><g style="opacity:0.30000000000000004"><path d="M413.79,315.33s13.18,35.92,0,81Z"></path></g><g style="opacity:0.30000000000000004"><path d="M298.4,315.33s13,33.24-.17,78.29Z"></path></g><g style="opacity:0.30000000000000004"><path d="M129.67,315.33s13,33.24-.16,78.29Z"></path></g><g style="opacity:0.30000000000000004"><path d="M666.08,170s13.18,35.92,0,81Z"></path></g><polygon points="41.63 390.8 56.54 406.61 56.54 471.96 72.51 471.96 72.51 406.61 88.06 391.5 41.63 390.8" style="fill:#e0e0e0"></polygon><path d="M41.63,390.8l46.43.49h.5l-.36.35L72.67,406.78l.07-.17c0,15.09,0,32.14,0,50.14,0,5.16,0,10.24,0,15.21v.26H56.28V472c0-26.85.08-49.83.11-65.35l0,.11L41.63,390.8l15,15.71,0,0v.06c0,15.52.06,38.5.1,65.35l-.25-.25h16l-.26.26V456.75c0-18,0-35.05,0-50.14v-.1l.07-.07,15.57-15.09.14.35Z" style="fill:#263238"></path><path d="M72.51,406.83a63.08,63.08,0,0,1-8,.26,63.08,63.08,0,0,1-8-.26,60.93,60.93,0,0,1,8-.26A60.93,60.93,0,0,1,72.51,406.83Z" style="fill:#263238"></path><polygon points="575.47 250.95 591.11 267.53 591.11 471.96 607.85 471.96 607.85 267.53 624.9 250.95 575.47 250.95" style="fill:#e0e0e0"></polygon><path d="M575.47,251l49.43-.15h.38l-.27.26-17,16.6,0-.13c0,47.13.05,113.78.08,187.58v17.11H590.85V472c.06-91.77.12-168.48.15-204.43l0,.07L575.47,251l15.71,16.51,0,0v0c0,36,.08,112.66.15,204.43l-.26-.26h16.75l-.26.26V455.11c0-73.8.06-140.45.08-187.58v-.08l.06-.05,17.07-16.56.1.26Z" style="fill:#263238"></path><path d="M607.85,267.75a136.31,136.31,0,0,1-16.83,0,136.31,136.31,0,0,1,16.83,0Z" style="fill:#263238"></path><path d="M403,394.29c0,.14-23.45.11-52.37-.08s-52.38-.45-52.38-.59,23.45-.11,52.38.07S403,394.14,403,394.29Z" style="fill:#263238"></path></g><g id="freepik--character-2--inject-99"><path d="M543.2,104.47a65.61,65.61,0,0,0-3.27,42.87A64,64,0,0,0,544.31,159a2.5,2.5,0,1,0,4.31-2.52A60.13,60.13,0,0,1,547.51,107a2.58,2.58,0,0,0-.89-3.42,2.51,2.51,0,0,0-3.42.9Z" style="fill:#e0e0e0"></path><path d="M545.76,147.56l10.47-15.29a2.52,2.52,0,0,0-.89-3.42,2.56,2.56,0,0,0-3.42.9L541.44,145a2.52,2.52,0,0,0,.9,3.42,2.56,2.56,0,0,0,3.42-.9Z" style="fill:#e0e0e0"></path><path d="M540.78,132.24a91.89,91.89,0,0,0,14-.17,2.5,2.5,0,0,0,0-5,91.89,91.89,0,0,1-14,.17,2.51,2.51,0,0,0-2.5,2.5,2.56,2.56,0,0,0,2.5,2.5Z" style="fill:#e0e0e0"></path><path d="M541.82,112.76a154.32,154.32,0,0,1,9.72,15.88,2.52,2.52,0,0,0,3.42.9,2.55,2.55,0,0,0,.9-3.42,156.23,156.23,0,0,0-9.72-15.89,2.56,2.56,0,0,0-3.42-.89,2.52,2.52,0,0,0-.9,3.42Z" style="fill:#e0e0e0"></path><path d="M449.24,425.49l-2.7,30.76S476.9,469.33,477,475.07L417.12,472l2.24-48.11Z" style="fill:#455a64"></path><path d="M428.17,452.7a2.45,2.45,0,0,0-1.83,2.7,2.36,2.36,0,0,0,2.66,1.85,2.59,2.59,0,0,0,1.93-2.88c-.34-1.15-1.9-2.12-3-1.6" style="fill:#e0e0e0"></path><path d="M417,473.23l.22-4.67,57.52,3.35s2.61,1.3,2.21,3.16Z" style="fill:#e0e0e0"></path><path d="M447.53,456c0,.29-1.5.35-3,1.21s-2.32,2.06-2.58,1.93.26-1.8,2.08-2.81S447.6,455.73,447.53,456Z" style="fill:#263238"></path><path d="M453.67,458.92c.05.29-1.24.72-2.3,1.9s-1.41,2.48-1.7,2.45-.39-1.69.95-3.14S453.68,458.64,453.67,458.92Z" style="fill:#263238"></path><path d="M456.84,466.62c-.26,0-.6-1.44.24-3s2.23-2.12,2.34-1.88-.78,1.07-1.44,2.36S457.14,466.6,456.84,466.62Z" style="fill:#263238"></path><path d="M447.37,448.92c-.14.26-1.46-.21-3.12-.19s-3,.49-3.11.23,1.15-1.24,3.11-1.24S447.52,448.7,447.37,448.92Z" style="fill:#263238"></path><path d="M440,116.25c-.17,3.62-.48,7.57-3,10.21-2.12,2.26-5.36,3-8.42,3.45a18.58,18.58,0,0,1-5.21.16,7.87,7.87,0,0,1-4.63-2.2,5,5,0,0,1-1.27-4.82,5.42,5.42,0,0,1-5.2-2.06,6.91,6.91,0,0,1-1.17-5.58,9.47,9.47,0,0,1,3-5,5.26,5.26,0,0,1-1.48-6.11c1.27-3.75,4-4.37,6.21-3.7a3.81,3.81,0,0,1,2.32-5.91L425,94Z" style="fill:#263238"></path><path d="M471.59,90a5.65,5.65,0,0,0-5.1-8.27l-8.78,2,3.78,14.81a7.72,7.72,0,0,0,1.86,3.91,5.13,5.13,0,0,0,3.89,1.1A7.72,7.72,0,0,0,471.59,90Z" style="fill:#263238"></path><path d="M447.53,152.12a13.71,13.71,0,0,1-14.7-12.3l-4.44-44.63c-1.57-12,4.07-22.82,16.06-24.07l1.11-.05A21.55,21.55,0,0,1,467.91,89.9c1.31,10.36,2.62,21.83,2.81,27.42.37,11.56-11.1,13.87-11.1,13.87s1.33,7.62,1.63,11c.67,7.6-6.12,9.34-13.72,9.93Z" style="fill:#b56760"></path><path d="M459.38,131a28,28,0,0,1-15.25-3.77s4.25,8.25,15.73,6.69Z" style="fill:#8a4a43"></path><path d="M465.46,99.8a1.66,1.66,0,0,1-1.52,1.74,1.58,1.58,0,0,1-1.77-1.41,1.66,1.66,0,0,1,1.52-1.74A1.58,1.58,0,0,1,465.46,99.8Z" style="fill:#263238"></path><path d="M465.42,94.59c-.2.22-1.49-.65-3.26-.56s-3,1-3.24.82.09-.49.64-.93a4.53,4.53,0,0,1,2.58-.92,4.34,4.34,0,0,1,2.61.71C465.31,94.11,465.52,94.49,465.42,94.59Z" style="fill:#263238"></path><path d="M448.72,100.91a1.65,1.65,0,0,1-1.51,1.74,1.58,1.58,0,0,1-1.77-1.42A1.65,1.65,0,0,1,447,99.5,1.58,1.58,0,0,1,448.72,100.91Z" style="fill:#263238"></path><path d="M448.06,96.09c-.2.22-1.49-.64-3.26-.56s-3,1-3.24.82.09-.49.64-.93a4.6,4.6,0,0,1,2.58-.92,4.39,4.39,0,0,1,2.61.71C448,95.61,448.16,96,448.06,96.09Z" style="fill:#263238"></path><path d="M455,109.45a12,12,0,0,1,2.86-.65c.45-.07.88-.18.94-.49a2.32,2.32,0,0,0-.36-1.33c-.48-1.08-1-2.21-1.5-3.4-2.08-4.83-3.61-8.81-3.42-8.89s2.05,3.77,4.13,8.6l1.44,3.41a2.61,2.61,0,0,1,.32,1.77,1.13,1.13,0,0,1-.72.7,3,3,0,0,1-.76.14A11.69,11.69,0,0,1,455,109.45Z" style="fill:#263238"></path><path d="M454.07,114.21a2.28,2.28,0,0,0-1.67-1.76,2.4,2.4,0,0,0-1.47.19,1.84,1.84,0,0,0-.93,1.13.85.85,0,0,0,0,.23,1,1,0,0,0-.13.43,2.87,2.87,0,0,0,.88,2.47,2.1,2.1,0,0,0,1.47.51,2,2,0,0,0,1.32-.67A2.91,2.91,0,0,0,454.07,114.21Z" style="fill:#8a4a43"></path><path d="M449.87,110.91c.29,0,.38,1.9,2.09,3.19s3.76,1,3.78,1.26-.44.39-1.3.46a4.8,4.8,0,0,1-3.15-.95,4.14,4.14,0,0,1-1.63-2.68C449.55,111.39,449.74,110.9,449.87,110.91Z" style="fill:#263238"></path><path d="M448,89.94c-.16.49-1.94.34-4,.68s-3.73,1-4,.57c-.13-.2.14-.67.8-1.16a6.78,6.78,0,0,1,2.95-1.19,6.86,6.86,0,0,1,3.17.23C447.69,89.34,448.09,89.71,448,89.94Z" style="fill:#263238"></path><path d="M464.43,88.08c-.3.42-1.54.06-3,.1s-2.7.4-3,0c-.14-.2,0-.61.57-1a4.37,4.37,0,0,1,4.85-.07C464.37,87.47,464.56,87.88,464.43,88.08Z" style="fill:#263238"></path><path d="M429.48,103.49c-.2-.08-8-2-7.44,5.9s8.4,5.65,8.4,5.42S429.48,103.49,429.48,103.49Z" style="fill:#b56760"></path><path d="M427.8,112s-.13.1-.35.23a1.4,1.4,0,0,1-1,.1c-.85-.24-1.66-1.51-1.81-2.93a4.66,4.66,0,0,1,.24-2,1.57,1.57,0,0,1,.95-1.13.7.7,0,0,1,.84.31c.12.21.08.38.13.39s.16-.15.07-.47a.92.92,0,0,0-.35-.47,1,1,0,0,0-.78-.14,1.94,1.94,0,0,0-1.34,1.33,4.69,4.69,0,0,0-.3,2.24c.17,1.58,1.1,3,2.26,3.25a1.45,1.45,0,0,0,1.24-.31C427.8,112.2,427.83,112,427.8,112Z" style="fill:#8a4a43"></path><path d="M440,85a6,6,0,0,0-3.71-1.13,18.41,18.41,0,0,0-9.87,2.41A8.78,8.78,0,0,0,422.6,90a4.4,4.4,0,0,0,.75,5,5.54,5.54,0,0,0,5.22,9.67h0a3.6,3.6,0,0,0,5.65,2.28,5.59,5.59,0,0,0,1.31-1.39c1.36-2,1.22-5.74.61-8.12A5.25,5.25,0,0,0,440,95a10.2,10.2,0,0,0,1.44-4.48C441.67,88.53,441.48,86.27,440,85Z" style="fill:#263238"></path><path d="M434.92,63.15c-.53.15-13.15,5-15,15.24s-.44,13-.44,13a6.3,6.3,0,0,0-1.19,1.38c-.45.71.8,3.66,2.45,3.07,11.93-7.53,26.95-10.32,43.85-12.27l12.85-2.06c3.67-.11,4.8-1.25,3.14-1.93-1.27-.53-12.11-3.13-12.11-3.13l-2.22-1.17-6.41-6.59s.51-1.12-.92-1.79S445.36,60.1,434.92,63.15Z" style="fill:#37474F"></path><g style="opacity:0.30000000000000004"><path d="M423.84,70.64s13.74-4.35,20.49-2.24l-.79-.26,6.34,1.74c1.07.3,2.32.56,3.22-.09a28.28,28.28,0,0,0-9.79-3.52C437.13,65.15,427.66,65.66,423.84,70.64Z"></path></g><path d="M423.65,70.74a9.74,9.74,0,0,1,1.14-1,18,18,0,0,1,3.54-2.17,21.23,21.23,0,0,1,5.9-1.75,17.61,17.61,0,0,1,7.52.36,33.24,33.24,0,0,1,3.68,1.33c1.15.51,2.29.93,3.34,1.44a18,18,0,0,0,3,1.33,6.11,6.11,0,0,0,2.8.15c3.46-.46,5.48-1.49,5.29-1.68a.57.57,0,0,1-.23.31,5.07,5.07,0,0,1-1,.52,19.74,19.74,0,0,1-4,1,6.32,6.32,0,0,1-2.88-.13,19.53,19.53,0,0,1-3-1.32c-1-.51-2.18-.93-3.34-1.43a30.82,30.82,0,0,0-3.65-1.32,17.83,17.83,0,0,0-7.43-.37,22,22,0,0,0-5.87,1.69,19.1,19.1,0,0,0-3.55,2.1c-.39.29-.69.53-.88.7A3.2,3.2,0,0,1,423.65,70.74Z" style="fill:#263238"></path><g style="opacity:0.30000000000000004"><path d="M419.3,82.63a31.81,31.81,0,0,0,6.77-2.24c2.58-1,5.16-1.83,7.69-2.93,1.93-.83,4.22-1.66,5.32-3.3a3,3,0,0,1-.49,2.86,14.17,14.17,0,0,1-4,2.52C429,82,425.08,83.66,419.07,85a17.47,17.47,0,0,1,.23-2.34"></path></g><path d="M420.18,77.26c-1.49.93-2.41,1.54-2.25,2.91.13,1.14.56,2.49,1.71,2.53a2.8,2.8,0,0,0,1-.23l16.91-6.07a2.61,2.61,0,0,0,1.49-1,1.79,1.79,0,0,0-1-2.31,4.84,4.84,0,0,0-2.75-.2,58.68,58.68,0,0,0-15.16,4.34" style="fill:#37474F"></path><path d="M438.82,75.72a1.65,1.65,0,0,0,.35-.83,2.2,2.2,0,0,0-1-2.09,5.54,5.54,0,0,0-3.62-.26c-1.39.27-2.91.6-4.49,1a46.4,46.4,0,0,0-7.92,2.64c-1,.43-1.75.83-2.28,1.11l-.61.32a1.18,1.18,0,0,1-.22.11.93.93,0,0,1,.2-.14l.59-.37c.52-.3,1.28-.72,2.25-1.17A42.78,42.78,0,0,1,430,73.32c1.59-.4,3.12-.71,4.51-1a5.58,5.58,0,0,1,3.74.33,2.29,2.29,0,0,1,1,2.24,1.42,1.42,0,0,1-.27.64C438.89,75.67,438.82,75.73,438.82,75.72Z" style="fill:#263238"></path><polygon points="461.86 70.81 450.87 72.19 452.25 75.14 464.13 73.14 461.86 70.81" style="fill:#fff"></polygon><path d="M446.71,83s4.77-1.47,10.69-3.15,10.72-3,10.74-3-4.77,1.47-10.68,3.16S446.73,83,446.71,83Z" style="fill:#263238"></path><path d="M523.29,109.3l-27.2,29.5-32.59,6.3,9.5,28.3,29.72-10.17a26.82,26.82,0,0,0,13.52-10.14c7-10.41,19-32.06,19-32.06Z" style="fill:#37474F"></path><polygon points="505.19 128.93 520.85 145.9 525.41 138.3 510.97 122.66 505.19 128.93" style="fill:#fff"></polygon><path d="M529.62,102.2s12.86-10.42,15.5-10.7,4.44-1,6.25.56,5.38,6,5.8,7.39-.51,4.46-.51,4.46a12.94,12.94,0,0,0-3.14-3.75c-1-.75-4.81-1.85-5.36,1.76a17.7,17.7,0,0,0,0,6l2.13-.3,1.4,4.42-14.07.6-3.72,7L523.29,109.3Z" style="fill:#b56760"></path><g style="opacity:0.30000000000000004"><path d="M463.89,145.1s7.49,3.4,10.72,11.05,1.27,16.26,1.27,16.26Z"></path></g><path d="M426.31,362c-4.7,21.91-9.87,89.57-9.87,89.57l33.06,1.1,11.91-68.28s5.38-24,8.67-37.17c2.93-11.78,12.78-102.64,12.78-102.64l-57.26,1.34s-2.19,5.2-3.67,19.17c-1.2,11.34-1.14,17.68-.25,23.29a23.79,23.79,0,0,0,3.57,9.25l4.25,9.17Z" style="fill:#37474F"></path><rect x="584.17" y="149.81" width="10.23" height="17.09" style="fill:#e0e0e0"></rect><rect x="574.06" y="166.39" width="31.86" height="4.66" style="fill:#e0e0e0"></rect><rect x="559.45" y="122.87" width="13.34" height="7.12" style="fill:#e0e0e0"></rect><rect x="571.76" y="108.24" width="34.17" height="42.21" style="fill:#e0e0e0"></rect><circle cx="588.84" cy="128.48" r="9.84" transform="translate(81.62 454) rotate(-45)" style="fill:#fff"></circle><path d="M598.68,128.48c-.07,0,0-.88-.42-2.37a9.89,9.89,0,0,0-3.6-5.28,9.62,9.62,0,0,0-9.08-1.32,9.43,9.43,0,0,0-4.42,3.34,9.51,9.51,0,0,0,0,11.27,9.5,9.5,0,0,0,4.42,3.33,9.62,9.62,0,0,0,9.08-1.32,9.89,9.89,0,0,0,3.6-5.28c.39-1.49.35-2.37.42-2.37a2.58,2.58,0,0,1,0,.63,3.65,3.65,0,0,1-.05.77,5.5,5.5,0,0,1-.17,1,9.92,9.92,0,0,1-7.79,7.49,10.15,10.15,0,0,1-5.31-.4,9.67,9.67,0,0,1-2.57-1.37,9.33,9.33,0,0,1-2.15-2.15,10,10,0,0,1,0-12,9.29,9.29,0,0,1,2.15-2.14,9.13,9.13,0,0,1,2.57-1.37,10.06,10.06,0,0,1,5.31-.41,9.92,9.92,0,0,1,7.79,7.49,5.5,5.5,0,0,1,.17,1,3.69,3.69,0,0,1,.05.77A2.51,2.51,0,0,1,598.68,128.48Z" style="fill:#263238"></path><path d="M571.76,108.24a4.08,4.08,0,0,1,.59,0l1.79,0,6.89-.07,24.89-.14h.26v.26c0,12.08,0,26.6.05,42.21.07-.06-.59.6-.31.32H588l-16.26,0h-.29v-.28c0-12.58.1-23.15.14-30.62,0-3.67,0-6.57.07-8.59,0-1,0-1.72,0-2.25a3.83,3.83,0,0,1,0-.76s0,.08,0,.22,0,.35,0,.6q0,.82,0,2.31c0,2,0,5,.07,8.65,0,7.42.09,17.94.14,30.44l-.27-.28,16.26,0h17.9c.28-.27-.38.39-.31.31,0-15.61,0-30.13,0-42.21l.26.26-24.73-.13-6.94-.07-1.84,0A5.59,5.59,0,0,1,571.76,108.24Z" style="fill:#263238"></path><path d="M605.41,166.39c0,.17-7,.31-15.74.31s-15.74-.14-15.74-.31,7.05-.31,15.74-.31S605.41,166.22,605.41,166.39Z" style="fill:#263238"></path><polygon points="587.82 128.13 590.56 128.98 591.59 121.69 587.82 128.13" style="fill:#37474F"></polygon><path d="M552.66,155.65c3-2.56,4-4.64,5.25-9.35a84.25,84.25,0,0,0,2.68-17.15c.54-11.91-1.76-19.86-3-23.25a12.34,12.34,0,0,0-2.56-4.2c-1.34-1.41-3.29-2.78-5.37-1.92-3.78,1.55-1,6,0,7.28A32.63,32.63,0,0,1,553,118.43c.75,9.4-1,24.84-2.44,29.71s-1.45,6.13-1.45,6.13,2.63,1.82,2.92,1.88A2.46,2.46,0,0,0,552.66,155.65Z" style="fill:#e0e0e0"></path><path d="M552.66,155.65s-.06.07-.19.2l-.27.22a.62.62,0,0,1-.2.12.72.72,0,0,1-.27-.1c-.64-.35-1.54-1-2.72-1.75l0,0v0a23.7,23.7,0,0,1,.77-3.89c.38-1.47.91-3.09,1.23-4.94a122.06,122.06,0,0,0,1.59-13.11c.18-2.49.31-5.13.33-7.88a46.08,46.08,0,0,0-.54-8.53,33.16,33.16,0,0,0-1.13-4.35,25.86,25.86,0,0,0-1.73-4.26,10.26,10.26,0,0,1-2-4.42,3,3,0,0,1,.72-2.46,3.29,3.29,0,0,1,1.06-.76,3.44,3.44,0,0,1,1.25-.39,4.66,4.66,0,0,1,3.17.94,10.45,10.45,0,0,1,2.3,2.25,16.78,16.78,0,0,1,2.58,5.65,57.24,57.24,0,0,1,2.08,11.48,75.79,75.79,0,0,1-1,19.68c-.49,2.76-1.06,5.24-1.67,7.39A22.93,22.93,0,0,1,555.9,152a12.67,12.67,0,0,1-2.27,2.82l-.71.62c-.16.13-.25.2-.26.19s.32-.3.89-.89a13.2,13.2,0,0,0,2.17-2.84,23.25,23.25,0,0,0,2-5.33c.58-2.14,1.12-4.62,1.59-7.38a76.36,76.36,0,0,0,.91-19.57,56.7,56.7,0,0,0-2.09-11.37,16.46,16.46,0,0,0-2.5-5.49,10.06,10.06,0,0,0-2.19-2.13,4.14,4.14,0,0,0-2.81-.85,3,3,0,0,0-1.08.33,2.85,2.85,0,0,0-.91.65,2.57,2.57,0,0,0-.59,2.06,9.79,9.79,0,0,0,1.92,4.2,26.56,26.56,0,0,1,1.78,4.37,35.39,35.39,0,0,1,1.13,4.42,46.38,46.38,0,0,1,.52,8.62c0,2.77-.18,5.41-.38,7.91a118.14,118.14,0,0,1-1.69,13.14c-.34,1.87-.91,3.5-1.3,4.95a24.74,24.74,0,0,0-.83,3.82l0-.08c1.16.82,2,1.44,2.66,1.82l.2.1a.46.46,0,0,0,.18-.1l.28-.2A1.25,1.25,0,0,1,552.66,155.65Z" style="fill:#263238"></path><path d="M431.34,135.06l-.95,5.66C427,146.89,419,159,420.06,177.53c1.38,23,3.49,66.29,3.49,66.29l-.1.6a9.85,9.85,0,0,0,3.07,8.86l0,0,52.29,1.13a12.11,12.11,0,0,0,10-13.55l-8.24-61.4-15.89-36.25-1.49-3.11-1.79-1.08Z" style="fill:#37474F"></path><polygon points="420.43 183.84 421.68 206.97 483.13 206.54 481.81 184.17 420.43 183.84" style="fill:#fff"></polygon><path d="M459.23,138.8a12.59,12.59,0,0,1-.11,1.55,37.7,37.7,0,0,0-.13,4.21v.24l-.23-.05c-3.07-.61-7.24-1.34-11.84-1.95-4.87-.65-9.3-1.11-12.5-1.5-1.6-.18-2.9-.35-3.79-.47a7.84,7.84,0,0,1-1.38-.25,6.46,6.46,0,0,1,1.4,0l3.8.31c3.22.29,7.65.69,12.54,1.34,4.61.62,8.79,1.4,11.85,2.1l-.23.19a28.59,28.59,0,0,1,.3-4.24A6.31,6.31,0,0,1,459.23,138.8Z" style="fill:#263238"></path><path d="M479.77,178.72a8.6,8.6,0,0,1-.67-1.4c-.42-1-1-2.31-1.65-3.88-1.39-3.28-3.34-7.8-5.54-12.77L466.19,148l-1.73-3.85a8.56,8.56,0,0,1-.57-1.44,9.81,9.81,0,0,1,.76,1.36c.45.88,1.1,2.17,1.87,3.78,1.56,3.2,3.66,7.66,5.86,12.64s4.1,9.52,5.41,12.84c.65,1.66,1.16,3,1.5,3.94A9.55,9.55,0,0,1,479.77,178.72Z" style="fill:#263238"></path><path d="M482,252.43a2.17,2.17,0,0,1-.58.11l-1.67.19c-1.45.16-3.56.35-6.17.55-5.21.41-12.42.81-20.39.93s-15.21-.05-20.43-.3c-2.61-.12-4.72-.24-6.17-.36l-1.68-.14a2,2,0,0,1-.58-.08,2.59,2.59,0,0,1,.58,0l1.69,0,6.18.2c5.22.15,12.43.26,20.4.14s15.17-.46,20.38-.78l6.17-.38,1.68-.1A4.38,4.38,0,0,1,482,252.43Z" style="fill:#263238"></path><path d="M537.45,157.31l7.67-8.31a3.59,3.59,0,0,1,2.62-1.15h2.67s-.84,4.36,2.32,4.73a4.09,4.09,0,0,0,4.25-2.49s4.72,2.12,4.23,5.28-1.94,4.36-1.94,4.36,1.22,2.67.25,4.61a7.24,7.24,0,0,1-2.91,2.91,14.77,14.77,0,0,1-3.4,3.15c-1.45.73-12.21,1.27-12.21,1.27l-9.38,9.62-6.9-15.14Z" style="fill:#b56760"></path><g style="opacity:0.30000000000000004"><path d="M430.94,171.06s-.59,4.79,5.77,14.32,16.6,26.16,30.66,29.8,16.74,2.48,16.74,2.48l-2.32-17.3Z"></path></g><path d="M428.49,160.31a33.74,33.74,0,0,0,10.8,22.75c9.8,9.19,28.84,29.25,41.17,29.52,17.57.38,53.9-30.75,53.9-30.75l-7.52-19.67-45.05,21.6-23.14-30.17a22,22,0,0,0-16-8.7c-3.73-.22-7.65.49-10.65,3.36S428.26,155.7,428.49,160.31Z" style="fill:#37474F"></path><polygon points="503.87 173.17 513.02 198.01 520.69 192.59 512.5 169.12 503.87 173.17" style="fill:#fff"></polygon><path d="M428.49,160.31s-.06-.52-.07-1.52a21.38,21.38,0,0,1,.36-4.38,11,11,0,0,1,7-8.68,15,15,0,0,1,5-1,21.19,21.19,0,0,1,11.38,2.89,22.57,22.57,0,0,1,5.24,4.18,33.84,33.84,0,0,1,2.25,2.74l2.22,2.89L482,183.61l-.29-.07,45.05-21.62.25-.12.11.26c1.7,4.48,3.52,9.22,5.35,14l2.16,5.66.07.17-.14.12a264.75,264.75,0,0,1-22.73,17.1c-3.82,2.53-7.65,4.92-11.53,7a70.15,70.15,0,0,1-11.82,5.26,29.76,29.76,0,0,1-6.12,1.33,18.63,18.63,0,0,1-3.08,0,17.05,17.05,0,0,1-3-.65,40.18,40.18,0,0,1-10.29-5.3,140,140,0,0,1-16-13.22c-2.31-2.16-4.47-4.25-6.52-6.23l-3-2.87c-1-.93-1.92-1.81-2.78-2.73A34.67,34.67,0,0,1,430.8,171a31.47,31.47,0,0,1-2.08-7.83c-.13-.92-.18-1.62-.2-2.1s0-.71,0-.71,0,.24.08.71.11,1.17.25,2.09a32.79,32.79,0,0,0,2.16,7.77,34.54,34.54,0,0,0,7,10.64c.86.91,1.81,1.78,2.78,2.71l3,2.86c2.05,2,4.22,4,6.54,6.2a141.93,141.93,0,0,0,15.94,13.13,40,40,0,0,0,10.19,5.22,17.72,17.72,0,0,0,2.89.63,18.65,18.65,0,0,0,3,0,29,29,0,0,0,6-1.32A70.73,70.73,0,0,0,500,205.72c3.87-2.09,7.68-4.48,11.49-7a264.26,264.26,0,0,0,22.67-17.08l-.07.29c-.69-1.79-1.42-3.71-2.16-5.65-1.84-4.8-3.65-9.55-5.36-14l.36.14L481.89,184l-.17.08-.12-.15-20.07-26.24-2.22-2.89c-.73-1-1.43-1.89-2.21-2.73A22.75,22.75,0,0,0,452,147.9a21,21,0,0,0-11.2-2.89,14.78,14.78,0,0,0-4.91,1,10.82,10.82,0,0,0-6.91,8.48,23.18,23.18,0,0,0-.44,4.35c0,.5,0,.88,0,1.13S428.49,160.31,428.49,160.31Z" style="fill:#263238"></path><path d="M481.1,193.3a27.7,27.7,0,0,1,.23-4.62,27.87,27.87,0,0,1,.46-4.6,16.29,16.29,0,0,1,0,4.64A17,17,0,0,1,481.1,193.3Z" style="fill:#263238"></path><g style="opacity:0.30000000000000004"><path d="M430.69,140.73c-.17.06,30,6.12,30,6.12l-1.5-7.2-.43,4.92S433,140,430.69,140.73Z"></path></g><path d="M423.19,236.6a3.86,3.86,0,0,1-.05-.59c0-.45,0-1-.07-1.71,0-1.49-.13-3.63-.26-6.28-.26-5.3-.82-12.62-1.49-20.69s-1.17-15.41-1.33-20.72c-.09-2.65-.12-4.8-.1-6.29,0-.7,0-1.26,0-1.71a2.87,2.87,0,0,1,.05-.6,2.41,2.41,0,0,1,.06.6c0,.44,0,1,.07,1.71,0,1.48.12,3.63.26,6.28.26,5.3.82,12.61,1.48,20.69s1.17,15.4,1.33,20.71c.09,2.66.13,4.81.1,6.29,0,.7,0,1.27,0,1.72A2.08,2.08,0,0,1,423.19,236.6Z" style="fill:#263238"></path></g><g id="freepik--character-1--inject-99"><path d="M232.61,461l28.2-9.65s19.28,25.43,24.67,24.16l-16.74-55.36-44.57,13.22Z" style="fill:#455a64"></path><path d="M253.24,435a2.36,2.36,0,0,1,2.1-2.34,2.28,2.28,0,0,1,2.35,2.07,2.5,2.5,0,0,1-2.25,2.47,2.38,2.38,0,0,1-2.2-2.43" style="fill:#e0e0e0"></path><path d="M269.89,419.78l-4.32,1.27L282,474.19s1.81,2.14,3.47,1.34Z" style="fill:#e0e0e0"></path><path d="M260.8,452.36c.27-.1,0-1.48.45-3.08s1.39-2.64,1.21-2.86-1.62.66-2.16,2.6S260.57,452.49,260.8,452.36Z" style="fill:#263238"></path><path d="M265,457.44c.28,0,.39-1.33,1.25-2.6s2-1.89,1.9-2.16-1.67,0-2.72,1.62S264.7,457.51,265,457.44Z" style="fill:#263238"></path><path d="M272.91,458.63c0-.26-1.48-.23-2.76.91s-1.47,2.59-1.21,2.63.81-1,1.87-1.89S273,458.91,272.91,458.63Z" style="fill:#263238"></path><path d="M254.13,453.84c.21-.19-.54-1.31-.89-2.87s-.24-2.9-.51-3-.9,1.37-.45,3.2S254,454,254.13,453.84Z" style="fill:#263238"></path><path d="M229.18,385.81c-1.09-.3-48.85,50.94-49.94,59.41s.65,15.85,6.3,20.63S255.45,455,255.45,455l-6.08-26.92,23.23-7.82-20.76-38Z" style="fill:#37474F"></path><g style="opacity:0.30000000000000004"><path d="M217.88,397.17l-1.53,1.64s27.38,28.72,35.78,28.33l13.44-4.55-45.48-27.91Z"></path></g><path d="M249.53,428.77c0,.14-9.93,3.19-22.27,6.82s-22.38,6.45-22.42,6.31,9.93-3.19,22.27-6.81S249.49,428.63,249.53,428.77Z" style="fill:#263238"></path><path d="M189.88,431.73l9.28,29.45s-26.82,19.33-25.63,24.94l57.75-15.95L218.7,423.69Z" style="fill:#455a64"></path><path d="M216.33,453.75A2.44,2.44,0,0,1,218.7,456a2.35,2.35,0,0,1-2.2,2.37A2.57,2.57,0,0,1,214,456c.08-1.2,1.39-2.48,2.56-2.22" style="fill:#e0e0e0"></path><path d="M231.66,471.38l-1.22-4.51L175,482.56s-2.26,1.83-1.47,3.56Z" style="fill:#e0e0e0"></path><path d="M198.14,461.15c.09.28,1.54,0,3.17.54s2.71,1.51,2.94,1.32-.64-1.69-2.64-2.29S198,460.91,198.14,461.15Z" style="fill:#263238"></path><path d="M192.78,465.33c0,.29,1.36.43,2.65,1.36s1.91,2.11,2.19,2,0-1.73-1.61-2.86S192.71,465.06,192.78,465.33Z" style="fill:#263238"></path><path d="M191.34,473.53c.27,0,.28-1.53-.88-2.87s-2.64-1.6-2.69-1.33,1,.87,1.92,2S191.05,473.58,191.34,473.53Z" style="fill:#263238"></path><path d="M196.77,454.2c.19.23,1.38-.52,3-.85s3-.17,3.09-.46-1.4-1-3.3-.54S196.57,454,196.77,454.2Z" style="fill:#263238"></path><g style="opacity:0.30000000000000004"><polygon points="231.69 460.35 228.14 446.38 230.79 445.15 214.63 401.17 211.55 403.86 224.25 444.14 228.79 460.96 231.69 460.35"></polygon></g><path d="M193.57,351.48a22.65,22.65,0,0,0-18.18,3.89c-4.34,3.26-8,8.48-6.79,16.68,2.61,18.24,25.92,80.5,25.92,80.5l32.24-9.7c.19-.06.37-.59.27-.42-.27.42-16.36-51.44-16-50.83s32.55,26.56,45.89,31.33a29.61,29.61,0,0,0,33.81-10.1c3.12-4.37,3.34-23.57,0-33.72,0,0-93.07-26.38-94.81-27A18.81,18.81,0,0,0,193.57,351.48Z" style="fill:#37474F"></path><path d="M192.25,370.45a43.79,43.79,0,0,1,18.91,30.72" style="fill:#37474F"></path><path d="M291.23,412l-.39.61c-.25.41-.7,1-1.28,1.71a29.43,29.43,0,0,1-6.21,5.42,33.14,33.14,0,0,1-5.31,2.84,30.53,30.53,0,0,1-6.93,1.93,28.81,28.81,0,0,1-8.3,0,29.65,29.65,0,0,1-8.93-2.83c-1.48-.71-3-1.53-4.49-2.35s-3-1.73-4.56-2.72-3.1-1.94-4.66-3-3.17-2.12-4.78-3.24c-6.44-4.47-13.19-9.53-20.19-15.1l-2.62-2.13c-.44-.37-.87-.72-1.32-1.12l-.34-.32c.15,0-.4,0,.33,0,.07-.26,0-.07,0-.12l0,.1.05.2.24.82,2.07,6.67L218,413.21q4.5,14.15,9.38,29.44l.08.24-.24.07-32.67,9.83-.23.07-.09-.22c-2.11-5.68-4.32-11.73-6.51-17.87-4.67-13.08-9.11-25.9-13-38.4-2-6.25-3.79-12.43-5.23-18.57-.4-1.53-.67-3.08-.95-4.62a20.92,20.92,0,0,1-.41-4.67,16.22,16.22,0,0,1,2.69-8.74,21.32,21.32,0,0,1,14.85-8.8,23.23,23.23,0,0,1,8.45.42l2,.52,2,.58,3.88,1.16,28.52,8.51,41.29,12.35L283,377.9l2.91.89,1,.32s-.34-.08-1-.27L283,378l-11.25-3.29-41.35-12.2-28.55-8.45L198,352.91l-2-.59-2-.5a22.8,22.8,0,0,0-8.29-.39,21.8,21.8,0,0,0-8.08,2.72,19.49,19.49,0,0,0-6.44,5.89,15.77,15.77,0,0,0-2.59,8.49,20.2,20.2,0,0,0,.41,4.57c.28,1.53.54,3.06.94,4.59,1.44,6.11,3.28,12.28,5.24,18.52,3.91,12.5,8.36,25.31,13,38.39,2.19,6.13,4.4,12.18,6.51,17.85l-.32-.15,32.67-9.82-.17.32-9.35-29.44q-2.24-7.08-4.35-13.83l-2.06-6.68-.24-.83-.06-.21,0-.12c0-.07-.05.08,0-.22.53.15.36-.07.4,0l.29.26,1.29,1.09,2.61,2.13c7,5.58,13.72,10.65,20.14,15.13,1.61,1.12,3.19,2.22,4.76,3.25s3.12,2,4.65,3,3.06,1.84,4.54,2.73,3,1.64,4.46,2.35a29.21,29.21,0,0,0,8.83,2.84,28.37,28.37,0,0,0,8.23,0,30.4,30.4,0,0,0,6.88-1.87,32.12,32.12,0,0,0,5.29-2.8,29.56,29.56,0,0,0,6.24-5.33c.59-.73,1.05-1.27,1.31-1.68S291.23,412,291.23,412Z" style="fill:#263238"></path><path d="M196.34,377.32a13.56,13.56,0,0,1,2.66,1.49,40.91,40.91,0,0,1,5.76,4.56,35.69,35.69,0,0,1,4.79,5.59c.53.78.93,1.43,1.18,1.89a2.54,2.54,0,0,1,.34.75c-.07,0-.69-.94-1.82-2.43a46,46,0,0,0-4.85-5.42,54.73,54.73,0,0,0-5.61-4.64A25,25,0,0,1,196.34,377.32Z" style="fill:#263238"></path><path d="M207.35,373.73a11,11,0,0,1,1.13,2.43,42.86,42.86,0,0,1,1.87,6.22,43.94,43.94,0,0,1,.94,6.42,10.58,10.58,0,0,1,0,2.69,19.55,19.55,0,0,1-.37-2.65c-.2-1.64-.53-3.89-1.08-6.35a63.63,63.63,0,0,0-1.71-6.2A16.3,16.3,0,0,1,207.35,373.73Z" style="fill:#263238"></path><path d="M234.21,240l9.62,44.39c1.64,7.55,2.5,19-9.56,21h0c-10.59,1-15.33-8.26-16.85-15.31-.72-3.34-1.33-6.12-1.43-6.46,0,0-11.53,1.39-14.77-9.62-1.57-5.32-3.9-16.54-5.89-26.71a21.38,21.38,0,0,1,15.2-24.68l1.06-.3C223.27,219.8,232,228.29,234.21,240Z" style="fill:#ffbe9d"></path><path d="M216,283.66a27.75,27.75,0,0,0,13.19-8.29S228,284.69,216.7,286.8Z" style="fill:#eb996e"></path><path d="M198.52,252.36c.26.18,1.72-.61,3.84-.63s3.72.69,3.94.5-.16-.4-.85-.73a7.39,7.39,0,0,0-3.16-.63,6.73,6.73,0,0,0-3,.73C198.61,252,198.4,252.29,198.52,252.36Z" style="fill:#263238"></path><path d="M216.06,249.42c.3,0,1.26-1.3,3.15-2.26s3.61-1,3.73-1.3-.31-.28-1.08-.27a7.44,7.44,0,0,0-3.09.85,6.75,6.75,0,0,0-2.4,2C216,249,215.92,249.4,216.06,249.42Z" style="fill:#263238"></path><path d="M216.61,252.67a1.27,1.27,0,0,0,1.52.9,1.22,1.22,0,0,0,1-1.46,1.28,1.28,0,0,0-1.52-.9A1.22,1.22,0,0,0,216.61,252.67Z" style="fill:#263238"></path><path d="M200.47,256.41a1.27,1.27,0,0,0,1.52.9,1.22,1.22,0,0,0,.95-1.45,1.26,1.26,0,0,0-1.52-.9A1.21,1.21,0,0,0,200.47,256.41Z" style="fill:#263238"></path><path d="M213.38,262a11.24,11.24,0,0,0-2.9.28c-.45.07-.88.1-1-.17a2.3,2.3,0,0,1-.07-1.37c.11-1.16.23-2.38.35-3.66.46-5.2.67-9.43.46-9.44s-.75,4.18-1.21,9.38c-.11,1.28-.21,2.5-.3,3.67a2.65,2.65,0,0,0,.25,1.76,1.12,1.12,0,0,0,.89.43,2.82,2.82,0,0,0,.77-.1A11.41,11.41,0,0,0,213.38,262Z" style="fill:#263238"></path><path d="M214.78,240.8c.26.37,1.7-.24,3.52-.52s3.38-.18,3.5-.62c.06-.21-.3-.54-1-.78a5.8,5.8,0,0,0-2.78-.21,5.73,5.73,0,0,0-2.57,1.07C214.89,240.19,214.66,240.61,214.78,240.8Z" style="fill:#263238"></path><path d="M197.66,247.91c.27.3,1.65-.38,3.42-.8s3.28-.49,3.4-.88c0-.18-.31-.43-1-.57a6.24,6.24,0,0,0-2.72.1,6.59,6.59,0,0,0-2.48,1.17C197.76,247.38,197.54,247.76,197.66,247.91Z" style="fill:#263238"></path><path d="M235.6,248.47c.17-.14,7-4.38,8.84,3.24s-6.15,7.93-6.22,7.72S235.6,248.47,235.6,248.47Z" style="fill:#ffbe9d"></path><path d="M239.83,256s.16.06.41.1a1.34,1.34,0,0,0,1-.22c.73-.5,1.09-1.94.79-3.32a4.46,4.46,0,0,0-.84-1.81,1.57,1.57,0,0,0-1.25-.77.7.7,0,0,0-.7.55c-.05.24,0,.38,0,.41s-.19-.09-.21-.42a.92.92,0,0,1,.18-.55,1,1,0,0,1,.69-.38,1.94,1.94,0,0,1,1.68.84,4.68,4.68,0,0,1,1,2c.33,1.55-.1,3.18-1.12,3.77a1.5,1.5,0,0,1-1.27.1C239.89,256.15,239.81,256,239.83,256Z" style="fill:#eb996e"></path><path d="M216.27,267c-.12-.18,1.29-.94,2.06-2.56a9,9,0,0,0,.66-2.23c.11-.6.21-1,.29-1s.14.39.15,1a5.82,5.82,0,0,1-.54,2.44,4.69,4.69,0,0,1-1.65,1.91C216.7,266.94,216.31,267,216.27,267Z" style="fill:#263238"></path><path d="M184.32,242.29a2.11,2.11,0,0,0-.9,1.92,2.5,2.5,0,0,0,2.22,2.07,3.2,3.2,0,0,0,2.81-1.38,4.38,4.38,0,0,0-.75,1.15,2,2,0,0,0,3.41,2l0,0c.47.52.85,1.07,1.25,1.61v0l.09.1c.25.34.5.67.79,1v0l3.69,4.51c-.48-3.18-1.66-7.59-2.13-10.78a18,18,0,0,0,11.35-8.34c1.34-2.26,2.2-4.93,4.27-6.54,2.68-2.07,6.43-1.72,9.79-1.28l-.16-.09a14.38,14.38,0,0,1,5,2.25,44.62,44.62,0,0,0,5.66,18.12c.48.83,1.66,2.51,2.6,2.67,1.87.32,2-1.53,2.82-2.68a4.67,4.67,0,0,1,3-1.41,69,69,0,0,0,.48-8.4l.52-2.94-1-3c-2.15-2.39,1-4.48-.53-7.32s-3.82-5.64-7-6.09l-.06,0c-2.88-.52-6.16.13-8,2.42-1.36-3.88-5.5-6.33-9.61-6.56s-10.23,1.66-13.66,3.93c-2.66,1.75-5,4.7-7.65,8.89-1.13,1.77-1.59,7.05-2.42,9Z" style="fill:#263238"></path><path d="M217.67,210.16c.57,0,14.59.73,19.69,10.21S242,233.11,242,233.11a6.61,6.61,0,0,1,1.61,1c.68.56.4,3.87-1.43,3.82-14.18-3.59-29.9-1.51-47.2,2L181.63,242c-3.66,1.07-5.14.3-3.72-.9,1.08-.93,10.94-7,10.94-7l1.82-1.87,4.2-8.56a1.41,1.41,0,0,1,.33-2.06C196.4,220.51,206.39,210.5,217.67,210.16Z" style="fill:#37474F"></path><path d="M190.67,232.25s.18,0,.52-.09l1.48-.28c1.28-.28,3.15-.58,5.47-.92a103.54,103.54,0,0,1,18.24-.84A160.18,160.18,0,0,1,234.57,232c2.32.35,4.19.67,5.48.88l1.49.24.52.07-.51-.12-1.49-.28c-1.28-.24-3.15-.58-5.46-1a149.83,149.83,0,0,0-18.21-1.9,100.31,100.31,0,0,0-18.28.91C193.48,231.5,190.67,232.25,190.67,232.25Z" style="fill:#263238"></path><g style="opacity:0.30000000000000004"><path d="M231,214s-14.95.13-20.94,4.38l.7-.51-5.7,3.76c-1,.63-2.1,1.3-3.2.94a29.39,29.39,0,0,1,8.52-6.62C216.13,212.84,225.65,210.3,231,214Z"></path></g><path d="M231.24,214a11.16,11.16,0,0,0-1.45-.63,18.23,18.23,0,0,0-4.2-1,21.83,21.83,0,0,0-6.39.17,18.33,18.33,0,0,0-7.29,2.77,31.64,31.64,0,0,0-3.2,2.5c-1,.87-2,1.65-2.84,2.5a20,20,0,0,1-2.52,2.27,6.32,6.32,0,0,1-2.71,1c-3.57.66-5.89.3-5.77.05a.62.62,0,0,0,.33.23,4.62,4.62,0,0,0,1.16.18,20.07,20.07,0,0,0,4.31-.3,6.41,6.41,0,0,0,2.79-1.05,19.67,19.67,0,0,0,2.56-2.27c.85-.83,1.85-1.62,2.83-2.48a33.24,33.24,0,0,1,3.18-2.48,18.3,18.3,0,0,1,7.21-2.75,21.94,21.94,0,0,1,6.33-.22,19.5,19.5,0,0,1,4.19.92c.48.17.84.31,1.09.41S231.24,214,231.24,214Z" style="fill:#263238"></path><g style="opacity:0.30000000000000004"><path d="M239.34,224.35c-2.61.43-4.71.09-7.39,0-2.87-.13-5.68-.15-8.54-.41-2.16-.21-4.69-.29-6.3-1.55a3.06,3.06,0,0,0,1.4,2.66,14.75,14.75,0,0,0,4.76,1.2c6.33.62,10.7,1,17,.37a17.43,17.43,0,0,0-1-2.24"></path></g><path d="M236.75,219.34c1.77.44,2.87.75,3.16,2.14.24,1.17.24,2.64-.87,3.05a3,3,0,0,1-1.08.1l-18.63-.55a2.76,2.76,0,0,1-1.79-.48,1.86,1.86,0,0,1,.21-2.59,5,5,0,0,1,2.65-1.08,60.89,60.89,0,0,1,16.35-.59" style="fill:#37474F"></path><path d="M217.87,223.81a1.64,1.64,0,0,1-.62-.7,2.28,2.28,0,0,1,.35-2.4,5.7,5.7,0,0,1,3.48-1.42c1.46-.17,3.07-.35,4.76-.47a48.8,48.8,0,0,1,8.66.06c1.1.11,2,.26,2.6.36l.7.13.25,0a.75.75,0,0,0-.24-.08l-.69-.17c-.61-.13-1.5-.3-2.61-.43a44.12,44.12,0,0,0-8.69-.12c-1.69.12-3.3.3-4.76.48a5.72,5.72,0,0,0-3.58,1.53,2.36,2.36,0,0,0-.31,2.54,1.69,1.69,0,0,0,.47.55C217.78,223.78,217.86,223.82,217.87,223.81Z" style="fill:#263238"></path><polygon points="193.55 226.37 204.84 224.2 204.43 227.56 192.07 229.4 193.55 226.37" style="fill:#fff"></polygon><path d="M212.41,233.5c0-.07-5.18.08-11.56.31s-11.55.49-11.55.55,5.18-.08,11.56-.32S212.41,233.56,212.41,233.5Z" style="fill:#263238"></path><path d="M76.05,310.91H67.3V291.83a10.32,10.32,0,0,1,10.24-10.38h9.15v8.88H77.54a1.5,1.5,0,0,0-1.49,1.5Z" style="fill:#e0e0e0"></path><path d="M80.6,292.9a4.33,4.33,0,0,1,3-5.24c4.52-1.33,11.53-3,13.44-1.26,2.89,2.64,9.79,9,9.79,9l14.7,3.52.88,13.18-25.87-7.41s-7,.38-6.41-3.39c0,0-3.51-1.38-3-3.51s3.39-2.64,3.39-2.64l-.63-3.77L80.64,293Z" style="fill:#ffbe9d"></path><circle cx="84.9" cy="286.84" r="8.85" style="fill:#fff"></circle><path d="M84.9,296.19a9.35,9.35,0,1,1,9.35-9.35A9.35,9.35,0,0,1,84.9,296.19Zm0-17.7a8.35,8.35,0,1,0,8.35,8.35A8.36,8.36,0,0,0,84.9,278.49Z" style="fill:#e0e0e0"></path><path d="M96.39,292.05l-11.68-3s-3.13-.88-1.5,2.51,6.53,2.63,8.41,4.64,2.95,5.4,10.74,6.66" style="fill:#ffbe9d"></path><path d="M102.36,302.85a8.48,8.48,0,0,1-1.54-.2,16.38,16.38,0,0,1-4-1.3,10.71,10.71,0,0,1-2.44-1.65,17.18,17.18,0,0,1-2.22-2.53,5.44,5.44,0,0,0-1.21-1.23,6.29,6.29,0,0,0-1.64-.73,31.89,31.89,0,0,1-3.8-1.21,6.05,6.05,0,0,1-1.72-1.2,5.52,5.52,0,0,1-1-1.75,4.16,4.16,0,0,1-.23-1,1.28,1.28,0,0,1,.4-1,1.57,1.57,0,0,1,1-.32,3.62,3.62,0,0,1,.94.13l6,1.61,4,1.14a7.45,7.45,0,0,1,1.47.48,9.38,9.38,0,0,1-1.52-.29l-4.09-1-6.06-1.51a1.84,1.84,0,0,0-1.51.11c-.34.27-.23.93,0,1.48a5.06,5.06,0,0,0,.94,1.58,5.54,5.54,0,0,0,1.56,1.07,31.78,31.78,0,0,0,3.73,1.21,6.42,6.42,0,0,1,1.77.8,6.13,6.13,0,0,1,1.31,1.34,17.52,17.52,0,0,0,2.13,2.51A11,11,0,0,0,97,301a19.06,19.06,0,0,0,3.9,1.43A8.88,8.88,0,0,1,102.36,302.85Z" style="fill:#eb996e"></path><polygon points="84.84 286.84 86.15 286.08 82.32 280.91 84.84 286.84" style="fill:#37474F"></polygon><path d="M77.91,280.66c.06.06-.43.52-.93,1.44A9.69,9.69,0,0,0,75.84,286a10.22,10.22,0,0,0,.46,4.06,13.69,13.69,0,0,1,.61,1.62,3.88,3.88,0,0,1-1-1.49,8.94,8.94,0,0,1-.64-4.23,8.67,8.67,0,0,1,1.34-4.07C77.28,281,77.88,280.61,77.91,280.66Z" style="fill:#263238"></path><path d="M121.43,297.35l49.54,5.5L213.16,293l.39,34.92s-46.09-1.63-49.1-1.88-44.06-5.65-44.06-5.65Z" style="fill:#37474F"></path><polygon points="131.01 298.41 130.75 321.79 139.57 322.94 139.76 299.38 131.01 298.41" style="fill:#fff"></polygon><path d="M241.45,271.76l3.7,3.11,24.76,8.32,14.29,21.1s6.65,62.8,6.29,68.3.28,6.52.28,6.52L215.42,357.7l-4-34.27L213.16,293l3.65-5.7,4.15,6.77,7.31-10.21Z" style="fill:#37474F"></path><polygon points="286.48 326.43 211.06 323.56 212.45 335.84 287.88 340.51 286.48 326.43" style="fill:#fff"></polygon><path d="M208.63,308.55a1.43,1.43,0,0,1,.14.48c.08.39.17.85.29,1.42.25,1.23.56,3,.92,5.24.71,4.44,1.51,10.6,2.31,17.4s1.53,13,2.16,17.41c.3,2.16.56,3.94.75,5.26.07.57.14,1,.19,1.43a1.65,1.65,0,0,1,0,.51,2.75,2.75,0,0,1-.13-.49c-.08-.38-.18-.85-.29-1.42-.25-1.23-.56-3-.92-5.24-.71-4.44-1.52-10.59-2.31-17.4s-1.54-13-2.16-17.4c-.31-2.17-.56-3.94-.75-5.26-.08-.58-.14-1.05-.19-1.44A1.89,1.89,0,0,1,208.63,308.55Z" style="fill:#263238"></path><path d="M221,294.11a4.57,4.57,0,0,1,.54-.71l1.62-1.88,5.77-6.49.16-.18.18.16,5.17,4.65.43.39-.38,0c3.11-4.07,5.92-7.72,8-10.34l2.45-3.07a8.39,8.39,0,0,1,1-1.09,7.36,7.36,0,0,1-.79,1.21c-.61.82-1.38,1.89-2.32,3.17-2,2.68-4.75,6.36-7.86,10.43l-.17.23-.21-.19c-.13-.13-.28-.26-.43-.39l-5.14-4.68h.34l-5.91,6.35-1.72,1.8A3.65,3.65,0,0,1,221,294.11Z" style="fill:#263238"></path><path d="M220.05,294.63a14.8,14.8,0,0,1-3.23-3.53h.41c-.28.37-.57.78-.85,1.21a25.37,25.37,0,0,0-1.82,3.3l-.15.33-.2-.28a9.5,9.5,0,0,1-1.32-2.07,9.76,9.76,0,0,1,1.64,1.82l-.35,0A18.49,18.49,0,0,1,216,292c.28-.43.58-.85.87-1.23l.22-.27.19.28C218.78,293.05,220.15,294.54,220.05,294.63Z" style="fill:#263238"></path><polygon points="163.93 319.35 191.81 341.96 198.54 333.88 171.31 310.89 163.93 319.35" style="fill:#263238"></polygon><path d="M167.48,315.14s-2.72-3.38-8.92-6.13a16.33,16.33,0,0,0-11.72-.57l-.37-.92a17.08,17.08,0,0,1,12.5.57c6.44,2.87,9.18,6.29,9.29,6.44Z" style="fill:#263238"></path><path d="M185.83,323.15s5.39.68,7.25,1.64,7.25,4.55,7.25,4.55l10.89,2.06-2.6,18-7.29-3.62-16.05,1.6s-3.5-.8-3.5-3.3a6.61,6.61,0,0,1-3.11-4.71s-4.3-5.64-4.69-6.73,1.8-3.66,1.8-3.66,4.58,3.88,7.37,4.49,5.31-.49,5.55-2.28C189.18,327.54,185.83,323.15,185.83,323.15Z" style="fill:#e0e0e0"></path><g style="opacity:0.30000000000000004"><path d="M214.83,354.17s36.55,13.11,48.81,12.33c10.39-.66,15.5-5.53,16.32-12.33s2-35.68,2-35.68l-19.61,34L214.63,351Z"></path></g><path d="M274.16,352.34c2.63-7.51,5.52-22,5.52-22l4.56-24.06a26.22,26.22,0,0,0-5.93-17.26c-3-3.58-7.18-6.65-12.76-6.62-11.83.05-11.41,21.85-11.41,21.85l-3.22,31.22L204.64,328l-2.94,22.25L256.13,362a16.18,16.18,0,0,0,13.35-2.57A14.09,14.09,0,0,0,274.16,352.34Z" style="fill:#37474F"></path><path d="M266.86,284.37c0,.08-.95.11-2.4.5a12.67,12.67,0,0,0-8.52,7.36c-.59,1.38-.75,2.31-.84,2.3a5.94,5.94,0,0,1,.5-2.44,11.84,11.84,0,0,1,8.78-7.58A6,6,0,0,1,266.86,284.37Z" style="fill:#263238"></path><polygon points="216.47 329.89 214.83 353.05 224.31 355.09 225.77 331.41 216.47 329.89" style="fill:#fff"></polygon><path d="M284.24,306.32s0,.19-.09.58-.16,1-.29,1.68c-.27,1.51-.67,3.69-1.18,6.49s-1.16,6.26-1.89,10.25c-.38,2-.75,4.14-1.22,6.4s-1,4.64-1.55,7.13-1.2,5.11-1.93,7.81c-.36,1.35-.76,2.72-1.19,4.11a28,28,0,0,1-1.59,4.17,13.34,13.34,0,0,1-2.69,3.78,14.63,14.63,0,0,1-4,2.59,16.78,16.78,0,0,1-9.82,1l-43-9.26-12.09-2.61-.24-.05,0-.24c1-7.68,2-15.13,2.94-22.25l0-.25.25,0L251,335.33l-.21.16c1-9.69,1.87-17.48,2.44-22.88.3-2.67.53-4.74.69-6.17.08-.69.14-1.22.19-1.6s.08-.55.08-.55,0,.19,0,.55-.08.91-.14,1.61c-.14,1.43-.34,3.51-.59,6.18-.54,5.4-1.32,13.2-2.28,22.89l0,.19-.19,0-46.29-7.47.28-.22c-.93,7.13-1.91,14.57-2.92,22.26l-.2-.29,12.09,2.61,43,9.29a16.36,16.36,0,0,0,9.55-1,13.63,13.63,0,0,0,3.9-2.5,12.69,12.69,0,0,0,2.62-3.65,28.36,28.36,0,0,0,1.57-4.1c.44-1.38.84-2.74,1.2-4.09.74-2.69,1.38-5.29,2-7.78s1.11-4.87,1.59-7.12.86-4.39,1.25-6.38c.77-4,1.44-7.42,2-10.24s1-5,1.28-6.47c.15-.72.26-1.28.34-1.67S284.24,306.32,284.24,306.32Z" style="fill:#263238"></path><path d="M256.3,343.42a26.2,26.2,0,0,1-3-4.12l-1.95-3a2.22,2.22,0,0,0-1.11-.83s.14-.09.43,0a2,2,0,0,1,1,.64c.62.74,1.3,1.79,2.09,3A25.19,25.19,0,0,1,256.3,343.42Z" style="fill:#263238"></path><g style="opacity:0.30000000000000004"><polygon points="222.58 292.33 228.86 288.46 235.77 295.79 244.77 276.99 234.66 290.24 229.07 285.19 222.58 292.33"></polygon></g><rect x="51.99" y="281.6" width="11.39" height="29.15" style="fill:#e0e0e0"></rect><ellipse cx="57.94" cy="268.47" rx="14.66" ry="14.83" style="fill:#fff"></ellipse><path d="M57.94,283.8a15.33,15.33,0,1,1,15.17-15.33A15.26,15.26,0,0,1,57.94,283.8Zm0-29.66a14.33,14.33,0,1,0,14.17,14.33A14.26,14.26,0,0,0,57.94,254.14Z" style="fill:#e0e0e0"></path><polygon points="56.12 268.47 58.92 269.28 61.2 258.86 56.12 268.47" style="fill:#37474F"></polygon><path d="M65.08,282.2a5,5,0,0,1-2,1.09,14.21,14.21,0,0,1-5.39.73,16.9,16.9,0,0,1-5.33-1.11,5.77,5.77,0,0,1-2-1.09c0-.07.8.32,2.1.74a20.06,20.06,0,0,0,5.22.94,16.56,16.56,0,0,0,5.25-.56C64.3,282.56,65,282.12,65.08,282.2Z" style="fill:#263238"></path><path d="M90,311c0,.14-13,.15-29.11,0s-29.1-.35-29.1-.49,13-.16,29.11,0S90,310.82,90,311Z" style="fill:#263238"></path></g></svg>